{"accessors":[{"bufferView":2,"componentType":5126,"count":1826,"max":[0.31531304121017456,0.005499989725649357,0.07231131196022034],"min":[-0.31531304121017456,-0.005499992053955793,-0.10044869780540466],"type":"VEC3"},{"bufferView":2,"byteOffset":21912,"componentType":5126,"count":1826,"max":[0.999451756477356,1,0.9322657585144043],"min":[-0.999451756477356,-1,-0.9982940554618835],"type":"VEC3"},{"bufferView":3,"componentType":5126,"count":1826,"max":[1,0.9999476075172424,0.9527338147163391,1],"min":[-1,-0.9999476075172424,-0.9113720655441284,-1],"type":"VEC4"},{"bufferView":1,"componentType":5126,"count":1826,"max":[0.9121174216270447,0.5518198013305664],"min":[0.5150776505470276,0.3295453190803528],"type":"VEC2"},{"bufferView":0,"componentType":5125,"count":2964,"type":"SCALAR"}],"asset":{"extras":{"author":"ABSoln (https://sketchfab.com/ABSoln)","license":"CC-BY-NC-4.0 (http://creativecommons.org/licenses/by-nc/4.0/)","source":"https://sketchfab.com/3d-models/the-batman-2021-bat-symbol-b2fabfc45e5e432dab9619c1edeb44bd","title":"The Batman 2021: Bat Symbol"},"generator":"Sketchfab-12.66.0","version":"2.0"},"bufferViews":[{"buffer":0,"byteLength":11856,"name":"floatBufferViews","target":34963},{"buffer":0,"byteLength":14608,"byteOffset":11856,"byteStride":8,"name":"floatBufferViews","target":34962},{"buffer":0,"byteLength":43824,"byteOffset":26464,"byteStride":12,"name":"floatBufferViews","target":34962},{"buffer":0,"byteLength":29216,"byteOffset":70288,"byteStride":16,"name":"floatBufferViews","target":34962}],"buffers":[{"byteLength":99504,"uri":"data:application/octet-stream;base64,"}],"images":[{"uri":"data:application/octet-stream;base64,"}],"materials":[{"doubleSided":true,"name":"Material.002","normalTexture":{"index":0,"scale":0},"pbrMetallicRoughness":{"roughnessFactor":0}}],"meshes":[{"name":"Object_0","primitives":[{"attributes":{"NORMAL":1,"POSITION":0,"TANGENT":2,"TEXCOORD_0":3},"indices":4,"material":0,"mode":4}]}],"nodes":[{"children":[1],"matrix":[1,0,0,0,0,2.220446049250313e-16,-1,0,0,1,2.220446049250313e-16,0,0,0,0,1],"name":"Sketchfab_model"},{"children":[2],"name":"root"},{"children":[3],"matrix":[1,0,0,0,0,2.220446049250313e-16,1,0,0,-1,2.220446049250313e-16,0,0,0,0,1],"name":"GLTF_SceneRootNode"},{"children":[4],"matrix":[5,0,0,0,0,0,5,0,0,-5,0,0,0,0.04126300662755966,0,1],"name":"Plane_2"},{"mesh":0,"name":"Object_4"}],"samplers":[{"magFilter":9729,"minFilter":9729,"wrapS":10497,"wrapT":10497}],"scene":0,"scenes":[{"name":"Sketchfab_Scene","nodes":[0]}],"textures":[{"sampler":0,"source":0}]}